<svg width="306" height="306" viewBox="0 0 306 306" fill="none" xmlns="http://www.w3.org/2000/svg">
<circle cx="151.634" cy="162.562" r="95.8982" fill="#6C52AE" fill-opacity="0.1"/>
<circle cx="61.7462" cy="97.8108" r="6.01071" fill="#6C52AE" fill-opacity="0.1"/>
<circle cx="219.937" cy="58.7408" r="11.2018" fill="#6C52AE" fill-opacity="0.1"/>
<circle cx="63.6584" cy="224.309" r="10.6554" fill="#6C52AE" fill-opacity="0.1"/>
<circle cx="254.362" cy="213.927" r="10.6554" fill="#6C52AE" fill-opacity="0.1"/>
<circle cx="233.598" cy="225.948" r="5.19107" fill="#6C52AE" fill-opacity="0.1"/>
<path d="M259.367 181.048L261.04 188.954L268.832 190.651L261.04 192.349L259.367 200.254L257.693 192.349L249.901 190.651L257.693 188.954L259.367 181.048Z" fill="white"/>
<path d="M249.359 100.337C249.482 99.759 250.306 99.759 250.428 100.337L251.494 105.371C251.539 105.581 251.702 105.746 251.912 105.792L256.909 106.88C257.482 107.005 257.482 107.823 256.909 107.948L251.912 109.037C251.702 109.082 251.539 109.247 251.494 109.457L250.428 114.492C250.306 115.069 249.482 115.069 249.359 114.492L248.294 109.457C248.249 109.247 248.085 109.082 247.875 109.037L242.879 107.948C242.305 107.823 242.305 107.005 242.879 106.88L247.875 105.792C248.085 105.746 248.249 105.581 248.294 105.371L249.359 100.337Z" fill="#4D416C"/>
<path d="M50.9393 166.454C51.0616 165.876 51.8862 165.876 52.0085 166.454L53.8351 175.083C53.8796 175.293 54.0433 175.458 54.2534 175.504L62.7938 177.364C63.3673 177.489 63.3673 178.307 62.7938 178.432L54.2534 180.293C54.0433 180.338 53.8796 180.503 53.8351 180.713L52.0085 189.343C51.8862 189.921 51.0616 189.921 50.9393 189.343L49.1127 180.713C49.0682 180.503 48.9045 180.338 48.6945 180.293L40.154 178.432C39.5806 178.307 39.5806 177.489 40.1541 177.364L48.6945 175.504C48.9045 175.458 49.0682 175.293 49.1127 175.083L50.9393 166.454Z" fill="#4D416C"/>
<path d="M84.9828 74.6077C84.666 74.5403 84.666 74.0882 84.9828 74.0208L89.7726 73.0022C89.8881 72.9777 89.9784 72.8877 90.0034 72.7724L91.0347 68.0163C91.1031 67.7011 91.5527 67.7011 91.6211 68.0163L92.6524 72.7724C92.6774 72.8877 92.7677 72.9777 92.8832 73.0022L97.673 74.0208C97.9898 74.0882 97.9898 74.5403 97.673 74.6077L92.8832 75.6262C92.7677 75.6508 92.6774 75.7408 92.6524 75.8561L91.6211 80.6122C91.5527 80.9274 91.1031 80.9274 91.0347 80.6122L90.0034 75.8561C89.9784 75.7408 89.8881 75.6508 89.7726 75.6262L84.9828 74.6077Z" fill="#4D416C"/>
<circle cx="171.578" cy="127.319" r="60.7464" fill="#4D416C" fill-opacity="0.07" stroke="#4D416C" stroke-width="2"/>
<circle cx="171.578" cy="127.319" r="50.9107" fill="#6C52AE" fill-opacity="0.1" stroke="#4D416C" stroke-width="2"/>
<path d="M92.4795 239.679L125.261 194.149L126.718 193.056L129.996 192.328H134.731L137.281 194.149L139.831 195.241L142.016 197.791L143.837 201.798L115.427 255.341L112.148 257.162H108.142L102.678 255.341L98.3073 253.52L94.3007 248.056L92.4795 245.871V239.679Z" fill="#4D416C"/>
<path d="M150.03 184.314L141.719 197.791" stroke="#4D416C" stroke-width="2"/>
<path d="M140.262 179.943L132.249 191.963" stroke="#4D416C" stroke-width="2"/>
<path d="M127.446 192.328L92.1151 240.771" stroke="#4D416C" stroke-width="2"/>
<path d="M143.473 201.069L115.063 256.069" stroke="#4D416C" stroke-width="2"/>
<path d="M126.718 193.056L127.317 192.722C128.629 191.992 130.137 191.69 131.628 191.859C132.237 191.928 132.835 192.075 133.407 192.296L134.434 192.692L134.78 192.807C136.708 193.45 138.46 194.533 139.897 195.97L141.027 197.1C141.486 197.559 141.888 198.073 142.222 198.63C142.613 199.281 142.908 199.986 143.099 200.721L143.473 202.162" stroke="#4D416C" stroke-width="2"/>
<path d="M115.791 255.341L114.239 256.038C112.737 256.714 111.116 257.089 109.469 257.141C108.19 257.181 106.912 257.026 105.679 256.681L104.635 256.388L104.284 256.269C101.188 255.219 98.3675 253.484 96.0336 251.194L94.6843 249.87C93.6293 248.834 92.8386 247.561 92.379 246.156C91.8071 244.409 91.7708 242.53 92.2745 240.762L92.4795 240.042" stroke="#4D416C" stroke-width="2"/>
</svg>
